<svg width="65" height="61" viewBox="0 0 65 61" fill="none" xmlns="http://www.w3.org/2000/svg">
<path d="M30.8476 1.14707L3.7355 23.4207L30.8476 45.7047L57.9596 23.4207L30.8476 1.14707Z" fill="white"/>
<path d="M30.8477 46.4866C30.6703 46.4716 30.504 46.394 30.3785 46.2676L3.26643 23.9836C3.1778 23.9098 3.1066 23.8173 3.05792 23.7127C3.00925 23.6082 2.9843 23.4941 2.98487 23.3788C2.98638 23.2638 3.01225 23.1504 3.06079 23.0462C3.10932 22.9419 3.17941 22.8492 3.26643 22.774L30.3785 0.500348C30.5219 0.372099 30.7075 0.301201 30.8999 0.301201C31.0923 0.301201 31.2779 0.372099 31.4213 0.500348L58.5333 22.774C58.6204 22.8492 58.6904 22.9419 58.739 23.0462C58.7875 23.1504 58.8134 23.2638 58.8149 23.3788C58.8155 23.4941 58.7905 23.6082 58.7418 23.7127C58.6932 23.8173 58.622 23.9098 58.5333 23.9836L31.4213 46.2676C31.3465 46.3425 31.2568 46.4007 31.1579 46.4384C31.0591 46.4762 30.9534 46.4926 30.8477 46.4866V46.4866ZM4.96615 23.4205L30.8477 44.693L56.7293 23.4205L30.8477 2.15838L4.96615 23.4205Z" fill="#366EFF"/>
<path d="M50.1392 7.40363H11.5566V53.2856H50.1392V7.40363Z" fill="white"/>
<path d="M39.3361 20.9597L26.1555 31.794V53.2856H50.1392V20.9597H39.3361Z" fill="white"/>
<path d="M39.3361 20.9597L26.1555 31.794V53.2856H50.1392V20.9597H39.3361Z" fill="white"/>
<path d="M50.1912 54.0675H11.6086C11.4021 54.0648 11.2047 53.9816 11.0586 53.8355C10.9125 53.6894 10.8293 53.492 10.8266 53.2855V7.40351C10.832 7.19972 10.9168 7.00611 11.0629 6.86392C11.209 6.72173 11.4048 6.6422 11.6086 6.64227H50.1912C50.3986 6.64227 50.5976 6.72467 50.7442 6.87133C50.8909 7.018 50.9733 7.21693 50.9733 7.42435V53.3063C50.9653 53.5092 50.8797 53.7014 50.7342 53.843C50.5886 53.9847 50.3943 54.065 50.1912 54.0675V54.0675ZM12.3386 52.5242H49.357V8.20643H12.3386V52.5242Z" fill="#366EFF"/>
<path d="M43.361 14.4423H31.1919C30.9844 14.4423 30.7855 14.3598 30.6389 14.2132C30.4922 14.0665 30.4098 13.8676 30.4098 13.6602C30.4098 13.4528 30.4922 13.2538 30.6389 13.1072C30.7855 12.9605 30.9844 12.8781 31.1919 12.8781H43.361C43.5684 12.8781 43.7674 12.9605 43.914 13.1072C44.0607 13.2538 44.1431 13.4528 44.1431 13.6602C44.1431 13.8676 44.0607 14.0665 43.914 14.2132C43.7674 14.3598 43.5684 14.4423 43.361 14.4423Z" fill="#366EFF"/>
<path d="M27.0207 14.4423H18.3344C18.127 14.4423 17.9281 14.3598 17.7814 14.2132C17.6348 14.0665 17.5524 13.8676 17.5524 13.6602C17.5524 13.4528 17.6348 13.2538 17.7814 13.1072C17.9281 12.9605 18.127 12.8781 18.3344 12.8781H27.0207C27.2282 12.8781 27.4271 12.9605 27.5738 13.1072C27.7204 13.2538 27.8028 13.4528 27.8028 13.6602C27.8028 13.8676 27.7204 14.0665 27.5738 14.2132C27.4271 14.3598 27.2282 14.4423 27.0207 14.4423Z" fill="#366EFF"/>
<path d="M43.3608 19.6561H35.3627C35.1553 19.6561 34.9564 19.5737 34.8097 19.4271C34.663 19.2804 34.5806 19.0815 34.5806 18.8741C34.5806 18.6667 34.663 18.4677 34.8097 18.3211C34.9564 18.1744 35.1553 18.092 35.3627 18.092H43.3608C43.5682 18.092 43.7671 18.1744 43.9138 18.3211C44.0605 18.4677 44.1428 18.6667 44.1428 18.8741C44.1428 19.0815 44.0605 19.2804 43.9138 19.4271C43.7671 19.5737 43.5682 19.6561 43.3608 19.6561Z" fill="#366EFF"/>
<path d="M31.1918 19.6561H18.3344C18.127 19.6561 17.9281 19.5737 17.7814 19.4271C17.6348 19.2804 17.5524 19.0815 17.5524 18.8741C17.5524 18.6667 17.6348 18.4677 17.7814 18.3211C17.9281 18.1744 18.127 18.092 18.3344 18.092H31.1918C31.3992 18.092 31.5982 18.1744 31.7448 18.3211C31.8915 18.4677 31.9739 18.6667 31.9739 18.8741C31.9739 19.0815 31.8915 19.2804 31.7448 19.4271C31.5982 19.5737 31.3992 19.6561 31.1918 19.6561V19.6561Z" fill="#366EFF"/>
<path d="M43.361 24.87H29.1063C28.8988 24.87 28.6999 24.7876 28.5532 24.6409C28.4066 24.4943 28.3242 24.2954 28.3242 24.0879C28.3242 23.8805 28.4066 23.6816 28.5532 23.5349C28.6999 23.3883 28.8988 23.3059 29.1063 23.3059H43.361C43.5684 23.3059 43.7673 23.3883 43.914 23.5349C44.0606 23.6816 44.143 23.8805 44.143 24.0879C44.143 24.2954 44.0606 24.4943 43.914 24.6409C43.7673 24.7876 43.5684 24.87 43.361 24.87Z" fill="#366EFF"/>
<path d="M24.9352 24.87H18.3344C18.127 24.87 17.9281 24.7876 17.7814 24.6409C17.6348 24.4943 17.5524 24.2954 17.5524 24.0879C17.5524 23.8805 17.6348 23.6816 17.7814 23.5349C17.9281 23.3883 18.127 23.3059 18.3344 23.3059H24.9352C25.1426 23.3059 25.3415 23.3883 25.4882 23.5349C25.6349 23.6816 25.7173 23.8805 25.7173 24.0879C25.7173 24.2954 25.6349 24.4943 25.4882 24.6409C25.3415 24.7876 25.1426 24.87 24.9352 24.87V24.87Z" fill="#366EFF"/>
<path d="M43.361 30.0839H36.4057C36.1983 30.0839 35.9994 30.0015 35.8527 29.8548C35.706 29.7081 35.6236 29.5092 35.6236 29.3018C35.6236 29.0944 35.706 28.8955 35.8527 28.7488C35.9994 28.6021 36.1983 28.5197 36.4057 28.5197H43.361C43.5684 28.5197 43.7673 28.6021 43.914 28.7488C44.0607 28.8955 44.1431 29.0944 44.1431 29.3018C44.1431 29.5092 44.0607 29.7081 43.914 29.8548C43.7673 30.0015 43.5684 30.0839 43.361 30.0839Z" fill="#366EFF"/>
<path d="M32.2346 30.0839H18.3344C18.127 30.0839 17.9281 30.0015 17.7814 29.8548C17.6348 29.7081 17.5524 29.5092 17.5524 29.3018C17.5524 29.0944 17.6348 28.8955 17.7814 28.7488C17.9281 28.6021 18.127 28.5197 18.3344 28.5197H32.2346C32.442 28.5197 32.6409 28.6021 32.7876 28.7488C32.9343 28.8955 33.0167 29.0944 33.0167 29.3018C33.0167 29.5092 32.9343 29.7081 32.7876 29.8548C32.6409 30.0015 32.442 30.0839 32.2346 30.0839Z" fill="#366EFF"/>
<path d="M37.8031 35.2978H23.8925C23.6851 35.2978 23.4862 35.2153 23.3395 35.0687C23.1928 34.922 23.1104 34.7231 23.1104 34.5157C23.1104 34.3083 23.1928 34.1093 23.3395 33.9627C23.4862 33.816 23.6851 33.7336 23.8925 33.7336H37.8031C38.0105 33.7336 38.2094 33.816 38.3561 33.9627C38.5028 34.1093 38.5852 34.3083 38.5852 34.5157C38.5852 34.7231 38.5028 34.922 38.3561 35.0687C38.2094 35.2153 38.0105 35.2978 37.8031 35.2978Z" fill="#366EFF"/>
<path d="M3.7355 23.4205V53.2855L21.9006 38.353L3.7355 23.4205Z" fill="white"/>
<path d="M39.7948 38.353L57.9599 53.2855V23.4205L39.7948 38.353Z" fill="white"/>
<path d="M30.8476 45.7046L21.9006 38.3531L3.7355 53.2856H57.9596L39.7946 38.3531L30.8476 45.7046Z" fill="white"/>
<path d="M8.94974 31.8043V48.9996L19.4087 40.4072L8.94974 31.8043Z" fill="white"/>
<path d="M8.94974 31.8043V48.9996L19.4087 40.4072L8.94974 31.8043Z" fill="white"/>
<path d="M48.0952 40.1153L57.9599 48.228V32.0129L48.0952 40.1153Z" fill="white"/>
<path d="M48.0952 40.1153L57.9599 48.228V32.0129L48.0952 40.1153Z" fill="white"/>
<path d="M3.73563 54.0676C3.61945 54.066 3.50523 54.0374 3.40195 53.9841C3.2684 53.9225 3.15524 53.824 3.0758 53.7002C2.99636 53.5765 2.95394 53.4326 2.95355 53.2855V23.4205C2.95394 23.2734 2.99636 23.1295 3.0758 23.0057C3.15524 22.882 3.2684 22.7835 3.40195 22.7218C3.53554 22.6566 3.68497 22.6307 3.83272 22.6474C3.98047 22.664 4.12041 22.7224 4.23616 22.8157L22.4013 37.7482C22.4891 37.8226 22.5597 37.9152 22.6081 38.0197C22.6565 38.1241 22.6816 38.2379 22.6816 38.353C22.6816 38.4681 22.6565 38.5819 22.6081 38.6863C22.5597 38.7908 22.4891 38.8834 22.4013 38.9578L4.23616 53.8798C4.09701 54.0001 3.91951 54.0666 3.73563 54.0676V54.0676ZM4.51771 25.0785V51.6275L20.6703 38.353L4.51771 25.0785Z" fill="#366EFF"/>
<path d="M44.9774 42.6074L33.5591 51.9923L25.5923 45.4437L16.0613 53.2854H57.9599L44.9774 42.6074Z" fill="white"/>
<path d="M44.9774 42.6074L33.5591 51.9923L25.5923 45.4437L16.0613 53.2854H57.9599L44.9774 42.6074Z" fill="white"/>
<path d="M57.9601 54.0676C57.7762 54.0666 57.5987 54.0001 57.4596 53.8799L39.2945 38.9682C39.2066 38.8938 39.136 38.8012 39.0876 38.6967C39.0392 38.5923 39.0141 38.4786 39.0141 38.3634C39.0141 38.2483 39.0392 38.1345 39.0876 38.0301C39.136 37.9256 39.2066 37.833 39.2945 37.7586L57.4908 22.8157C57.6066 22.7224 57.7465 22.664 57.8943 22.6474C58.042 22.6307 58.1915 22.6566 58.3251 22.7218C58.4586 22.7835 58.5718 22.882 58.6512 23.0057C58.7307 23.1295 58.7731 23.2734 58.7734 23.4205V53.2855C58.7731 53.4326 58.7307 53.5765 58.6512 53.7002C58.5718 53.824 58.4586 53.9225 58.3251 53.9841C58.2124 54.0423 58.0868 54.071 57.9601 54.0676ZM41.0255 38.353L57.178 51.6275V25.0785L41.0255 38.353Z" fill="#366EFF"/>
<path d="M57.9597 54.0676H3.73557C3.57368 54.0668 3.41595 54.0163 3.28359 53.9231C3.15122 53.8299 3.05059 53.6984 2.99521 53.5463C2.94293 53.3947 2.93786 53.2308 2.98068 53.0762C3.0235 52.9217 3.1122 52.7838 3.23504 52.6807L21.4001 37.7482C21.5435 37.62 21.7291 37.5491 21.9215 37.5491C22.1139 37.5491 22.2995 37.62 22.4429 37.7482L30.8894 44.6931L39.3358 37.7482C39.4792 37.62 39.6648 37.5491 39.8572 37.5491C40.0496 37.5491 40.2352 37.62 40.3786 37.7482L58.5437 52.6807C58.6665 52.7838 58.7552 52.9217 58.798 53.0762C58.8408 53.2308 58.8358 53.3947 58.7835 53.5463C58.7239 53.7125 58.6105 53.8541 58.4613 53.9486C58.312 54.0431 58.1355 54.085 57.9597 54.0676V54.0676ZM5.91496 52.5243H55.7803L39.7633 39.3646L31.3169 46.3094C31.1735 46.4377 30.9879 46.5086 30.7955 46.5086C30.6031 46.5086 30.4175 46.4377 30.2741 46.3094L21.8277 39.3646L5.91496 52.5243Z" fill="#366EFF"/>
<path d="M63.3698 35.1987C63.1788 35.1962 62.9963 35.1192 62.8612 34.9841C62.7261 34.849 62.6491 34.6665 62.6466 34.4754V24.0804C62.6466 23.8886 62.7228 23.7047 62.8584 23.569C62.994 23.4334 63.178 23.3572 63.3698 23.3572C63.5616 23.3572 63.7456 23.4334 63.8812 23.569C64.0168 23.7047 64.093 23.8886 64.093 24.0804V34.4851C64.0905 34.6752 64.0132 34.8567 63.8778 34.9902C63.7425 35.1238 63.5599 35.1987 63.3698 35.1987V35.1987Z" fill="#366EFF"/>
<path d="M63.3698 20.9369C63.178 20.9369 62.994 20.8607 62.8584 20.7251C62.7228 20.5894 62.6466 20.4055 62.6466 20.2137V18.0826C62.6466 17.8908 62.7228 17.7068 62.8584 17.5712C62.994 17.4356 63.178 17.3594 63.3698 17.3594C63.5616 17.3594 63.7456 17.4356 63.8812 17.5712C64.0168 17.7068 64.093 17.8908 64.093 18.0826V20.2233C64.093 20.3179 64.0743 20.4114 64.0378 20.4986C64.0013 20.5858 63.9479 20.6649 63.8806 20.7313C63.8133 20.7977 63.7335 20.8501 63.6458 20.8854C63.5581 20.9207 63.4643 20.9382 63.3698 20.9369Z" fill="#366EFF"/>
<path d="M4.75453 10.5032H0.750715C0.336321 10.5032 0 10.1669 0 9.7525C0 9.33811 0.336321 9.00179 0.750715 9.00179H4.75453C5.16893 9.00179 5.50525 9.33811 5.50525 9.7525C5.50525 10.1669 5.16893 10.5032 4.75453 10.5032Z" fill="#366EFF"/>
<path d="M2.75322 12.5052C2.33882 12.5052 2.0025 12.1689 2.0025 11.7545V7.75071C2.0025 7.33632 2.33882 7 2.75322 7C3.16761 7 3.50393 7.33632 3.50393 7.75071V11.7545C3.50393 12.1689 3.16761 12.5052 2.75322 12.5052Z" fill="#366EFF"/>
<path d="M17.2093 56.8662C17.7416 56.8662 18.1736 57.2982 18.1736 57.8304C18.1736 58.3627 17.7416 58.7947 17.2093 58.7947C16.677 58.7947 16.245 58.3627 16.245 57.8304C16.245 57.2982 16.677 56.8662 17.2093 56.8662Z" fill="#366EFF"/>
<path d="M11.4236 56.8662C11.9559 56.8662 12.3879 57.2982 12.3879 57.8304C12.3879 58.3627 11.9559 58.7947 11.4236 58.7947C10.8913 58.7947 10.4593 58.3627 10.4593 57.8304C10.4593 57.2982 10.8913 56.8662 11.4236 56.8662Z" fill="#366EFF"/>
<path d="M5.63789 56.8662C6.17017 56.8662 6.60217 57.2982 6.60217 57.8304C6.60217 58.3627 6.17017 58.7947 5.63789 58.7947C5.1056 58.7947 4.6736 58.3627 4.6736 57.8304C4.6736 57.2982 5.1056 56.8662 5.63789 56.8662Z" fill="#366EFF"/>
<path d="M27.8974 58.7175H23.8936C23.4792 58.7175 23.1429 58.3812 23.1429 57.9668C23.1429 57.5524 23.4792 57.2161 23.8936 57.2161H27.8974C28.3118 57.2161 28.6481 57.5524 28.6481 57.9668C28.6481 58.3812 28.3118 58.7175 27.8974 58.7175Z" fill="#366EFF"/>
<path d="M25.8961 60.7195C25.4817 60.7195 25.1454 60.3832 25.1454 59.9688V55.965C25.1454 55.5506 25.4817 55.2143 25.8961 55.2143C26.3105 55.2143 26.6468 55.5506 26.6468 55.965V59.9688C26.6468 60.3832 26.3105 60.7195 25.8961 60.7195Z" fill="#366EFF"/>
</svg>
